{"title":"My.Way.2011.DVDRip.XviD-EXViD","uid":7672232,"size":1491368201,"categoryP":"video","categoryS":"movies","magnet":"?xt=urn:btih:ac76fdedb7531b3dbbffe632f55864221c13e673&amp;dn=My.Way.2011.DVDRip.XviD-EXViD&amp;tr=udp%3A%2F%2Ftracker.openbittorrent.com%3A80&amp;tr=udp%3A%2F%2Fopen.demonii.com%3A1337&amp;tr=udp%3A%2F%2Ftracker.coppersurfer.tk%3A6969&amp;tr=udp%3A%2F%2Fexodus.desync.com%3A6969","seeders":11,"leechers":3,"uploader":"HeroMaster","files":-1,"time":1348606713,"description":"My.Way.2011.DVDRip.XviD-EXViD\n\nEXViD aims to iNTERNAL those releases which have been lost in the archives\nEXViD aims to PRE non-internal releases which have poor sources and are likely skipped by others\n &lt;a href=&quot;\nhttp://www.imdb.com/title/tt1606384&quot; rel=&quot;nofollow&quot; target=&quot;_NEW&quot;&gt;\nhttp://www.imdb.com/title/tt1606384&lt;/a&gt;\nSubtitles: English\nDate: 2012.09\n\nDirector: Je-kyu Kang\n\nGenre: Action  Drama  History  War\n\nPlot\nInspired by a true story. Jun Shik works for Tatsuo's grandfather's farm while Korea is\ncolonized by Japan, but he has a dream to participate in Tokyo Olympics as a marathon runner\nTatsuo also aims to become a marathon runner, so the two are in rivalry. But war breaks out\nand they both are forced to enlist in the army. Tatsuo becomes the head of defense in Jun\n\nCast\nDong-gun Jang ...Jun-shik Kim\nJ Odagiri ...Tatsuo Hasegawa\nBingbing Fan ...Shirai\nIn-kwon Kim ...Lee Jong-dae\nSeung-hyeon Han\nJin-seok Yang\nJi-han Do\nHee-won Kim\nYeon-hee Lee\nJi-woong Wi\nJong-yeol Jeong\nHo-yeon Lee\nMichael Arnold ...Father\n\nStats\nFormat                           : AVI\nFormat/Info                      : Audio Video Interleave\nFile size                        : 1.37 GiB\nDuration                         : 2h 17mn\nOverall bit rate                 : 1 423 Kbps\nWriting application              : Nandub v1.0rc2\nWriting library                  : Nandub build 1852/release\n\nVideo\nID                               : 0\nFormat                           : MPEG-4 Visual\nFormat profile                   : Advanced SimpleL5\nFormat settings, BVOP            : 2\nFormat settings, QPel            : No\nFormat settings, GMC             : No warppoints\nFormat settings, Matrix          : Default (H.263\nCodec ID                         : XVID\nCodec ID/Hint                    : XviD\nDuration                         : 2h 17mn\nBit rate                         : 1 287 Kbps\nWidth                            : 640 pixels\nHeight                           : 272 pixels\nDisplay aspect ratio             : 2.35:1\nFrame rate                       : 25.000 fps\nColor space                      : YUV\nChroma subsampling               : 4:2:0\nBit depth                        : 8 bits\nScan type                        : Progressive\nCompression mode                 : Lossy\nBits/(PixelFrame)               : 0.296\nStream size                      : 1.24 GiB (90\nWriting library                  : XviD 64\n\nAudio\nID                               : 1\nFormat                           : MPEG Audio\nFormat version                   : Version 1\nFormat profile                   : Layer 3\nMode                             : Joint stereo\nMode extension                   : MS Stereo\nCodec ID                         : 55\nCodec ID/Hint                    : MP3\nDuration                         : 2h 17mn\nBit rate mode                    : Variable\nBit rate                         : 128 Kbps\nChannel(s)                       : 2 channels\nSampling rate                    : 48.0 KHz\nCompression mode                 : Lossy\nStream size                      : 121 MiB (9\nAlignment                        : Aligned on interleaves\nInterleave, duration             : 24 ms (0.60 video frame\nInterleave, preload duration     : 143 ms\nWriting library                  : LAME3.98r\nEncoding settings                : -m j -V 4 -q 3 -lowpass 17 --abr 128\n\nRelease notes\nenjoy\n\n\nPoster:\n\n &lt;a href=&quot;\nhttp://i.imgur.com/nyP0m.jpg&quot; rel=&quot;nofollow&quot; target=&quot;_NEW&quot;&gt;\nhttp://i.imgur.com/nyP0m.jpg&lt;/a&gt;\n\n\nScreenshots:\n\n &lt;a href=&quot;\nhttp://i.imgur.com/31Sg2.jpg&quot; rel=&quot;nofollow&quot; target=&quot;_NEW&quot;&gt;\nhttp://i.imgur.com/31Sg2.jpg&lt;/a&gt;\n\n &lt;a href=&quot;\nhttp://i.imgur.com/Jw03D.jpg&quot; rel=&quot;nofollow&quot; target=&quot;_NEW&quot;&gt;\nhttp://i.imgur.com/Jw03D.jpg&lt;/a&gt;\n\n\nENJOY!","torrent":{"xt":"urn:btih:ac76fdedb7531b3dbbffe632f55864221c13e673","amp;dn":"My.Way.2011.DVDRip.XviD-EXViD","amp;tr":["udp%3A%2F%2Ftracker.openbittorrent.com%3A80","udp%3A%2F%2Fopen.demonii.com%3A1337","udp%3A%2F%2Ftracker.coppersurfer.tk%3A6969","udp%3A%2F%2Fexodus.desync.com%3A6969"],"infoHash":"ac76fdedb7531b3dbbffe632f55864221c13e673","infoHashBuffer":{"type":"Buffer","data":[172,118,253,237,183,83,27,61,187,255,230,50,245,88,100,34,28,19,230,115]},"announce":[],"urlList":[]}}